<?xml version="1.0" standalone="no"?>
<!DOCTYPE svg PUBLIC "-//W3C//DTD SVG 20010904//EN"
 "http://www.w3.org/TR/2001/REC-SVG-20010904/DTD/svg10.dtd">
<svg version="1.0" xmlns="http://www.w3.org/2000/svg"
 width="1024.000000pt" height="1024.000000pt" viewBox="0 0 1024.000000 1024.000000"
 preserveAspectRatio="xMidYMid meet">
<metadata>
Created by potrace 1.16, written by Peter Selinger 2001-2019
</metadata>
<g transform="translate(0.000000,1024.000000) scale(0.100000,-0.100000)"
fill="#000000" stroke="none">
<path d="M3233 7009 c-43 -12 -90 -62 -103 -107 -9 -35 -16 -2381 -6 -2371 6
6 165 617 316 1214 86 339 140 534 156 561 28 50 69 86 138 122 49 26 59 27
241 32 l190 5 2 35 c2 19 6 77 9 128 3 50 9 92 12 92 4 0 70 -59 147 -130
l140 -129 745 -1 745 0 108 108 107 107 -723 0 -723 0 -40 26 c-28 19 -54 53
-94 125 -68 121 -111 167 -173 182 -56 15 -1145 15 -1194 1z"/>
<path d="M6250 6568 l0 -108 195 0 195 0 0 49 c0 53 -25 99 -73 135 -25 18
-47 22 -173 26 l-144 5 0 -107z"/>
<path d="M4320 6318 c0 -24 -9 -196 -20 -383 l-20 -340 -89 -298 -89 -299 104
-256 c57 -141 107 -259 111 -263 5 -3 127 -59 273 -124 146 -65 349 -157 451
-205 l186 -87 69 35 c83 42 393 185 634 293 l175 79 112 265 113 266 -91 297
-92 297 -23 360 c-13 198 -24 371 -24 383 0 13 -4 22 -10 20 -5 -1 -117 -110
-248 -240 l-239 -238 -389 0 -389 1 -245 239 c-135 131 -248 239 -252 240 -5
0 -8 -19 -8 -42z m450 -1083 c127 -64 230 -120 230 -125 0 -16 -211 -110 -247
-110 -34 0 -90 24 -130 57 -16 13 -30 51 -52 139 -17 67 -33 129 -37 138 -3 9
-3 16 0 16 4 0 110 -52 236 -115z m1094 -16 c-14 -68 -32 -134 -40 -146 -18
-28 -89 -70 -134 -78 -29 -5 -53 3 -148 50 -63 30 -112 60 -110 67 4 10 450
239 455 234 1 -1 -9 -58 -23 -127z m-468 -424 c10 -24 -153 -225 -181 -225 -8
0 -48 39 -90 88 -92 103 -109 128 -100 142 4 6 72 10 186 10 151 0 181 -2 185
-15z"/>
<path d="M3802 6289 c-73 -36 -84 -64 -177 -429 -48 -184 -130 -508 -185 -720
-189 -740 -202 -798 -189 -839 15 -48 65 -99 109 -111 42 -12 1180 -14 1180
-2 0 4 -19 15 -42 24 -84 32 -293 130 -304 141 -6 7 -37 75 -69 152 -32 77
-89 211 -126 299 -38 87 -69 165 -69 175 0 9 43 155 95 324 l95 309 15 261 c8
144 17 301 20 350 l5 87 -158 0 c-140 0 -162 -2 -200 -21z"/>
<path d="M4670 6273 c19 -21 77 -82 130 -135 l95 -98 315 0 316 0 96 93 c53
50 113 111 133 135 l37 42 -578 0 -578 0 34 -37z"/>
<path d="M6270 6270 c0 -85 41 -637 50 -675 5 -22 48 -165 95 -318 47 -152 85
-283 85 -290 0 -6 -61 -154 -136 -329 l-136 -316 -147 -63 c-255 -108 -263
-99 84 -96 l300 2 48 28 c26 15 58 45 72 65 24 36 88 286 313 1207 185 754
173 695 148 743 -8 15 -26 38 -41 52 l-27 25 -354 3 -354 3 0 -41z"/>
<path d="M4343 3821 l-142 -106 -1 -84 c0 -65 3 -81 13 -74 231 172 278 204
289 197 11 -6 220 -161 266 -197 9 -7 12 9 12 75 l0 84 -142 104 c-78 58 -144
106 -147 106 -4 1 -70 -46 -148 -105z"/>
<path d="M5647 3819 l-147 -109 0 -80 c0 -44 3 -80 6 -80 3 0 68 47 144 105
77 58 141 105 145 105 3 0 59 -40 123 -88 64 -49 129 -97 145 -106 l27 -18 0
83 -1 84 -107 77 c-59 42 -125 90 -147 106 l-40 30 -148 -109z"/>
<path d="M4343 3498 l-143 -101 0 -83 0 -84 136 101 c75 55 142 103 150 106 8
3 71 -37 143 -91 72 -53 137 -99 146 -102 13 -5 15 5 15 67 0 41 -4 79 -8 85
-9 12 -264 192 -283 199 -8 2 -78 -41 -156 -97z"/>
<path d="M5648 3502 c-76 -54 -140 -106 -143 -117 -3 -11 -5 -50 -3 -87 l3
-66 143 105 c127 94 146 104 165 95 12 -6 79 -54 150 -107 l127 -95 0 83 0 83
-137 99 c-76 54 -145 100 -153 101 -8 2 -77 -40 -152 -94z"/>
</g>
</svg>
